<?xml version="1.0" encoding="utf-8"?>
<!-- Generator: Adobe Illustrator 20.1.0, SVG Export Plug-In . SVG Version: 6.00 Build 0)  -->
<svg version="1.1" id="Слой_1" xmlns="http://www.w3.org/2000/svg" xmlns:xlink="http://www.w3.org/1999/xlink" x="0px" y="0px"
	 viewBox="0 0 1010.7 1704" enable-background="new 0 0 1010.7 1704" xml:space="preserve">
<g id="Baby_Seal_-_Front_-_Flipper_Rear_1">
</g>
<g id="Baby_Seal_-_Front_-_Flipper_Rear_2">
</g>
<g id="Baby_Seal_-_Front_-_Flipper_Right_1_">
</g>
<g id="Baby_Seal_-_Front_-_Flipper_Left">
</g>
<g id="Baby_Seal_-_Front_-_Body">
</g>
<g id="Baby_Seal_-_Front_-_Head">
</g>
<g id="Baby_Seal_-_Front_-_Spots">
</g>
<g id="Baby_Seal_-_Front_-_Eye_Right">
</g>
<g id="Baby_Seal_-_Front_-_Eye_Left_1_">
</g>
<g id="Baby_Seal_-_Front_-_Mouth">
</g>
<g id="Baby_Seal_-_Front_-_Lip">
</g>
<g id="Baby_Seal_-_Front_-_Nose">
</g>
<g>
	<g id="XMLID_1_">
		<g>
			<path fill="#66A7D9" d="M840.2,598.8c77.1,0,139.7,32,139.7,71.5c0,39.5-62.5,71.5-139.7,71.5c-16.8,0-33-1.5-48-4.3l0.2-134.3
				C807.3,600.3,823.4,598.8,840.2,598.8z"/>
			<path fill="#61666D" d="M792.7,407.5v66.6c0,2.7,0,5.5-0.1,8.2L792.7,407.5z"/>
			<path fill="#66A7D9" d="M792.7,353.5v54c0-117.6-90.9-213-203-213H422c-112.1,0-202.9,95.4-202.9,213l-0.1,90.3
				c-0.6-7.8-0.9-15.7-0.9-23.7V353.5C218,187,346.7,52,505.3,52c79.3,0,151.2,33.7,203.2,88.3C760.5,194.9,792.7,270.3,792.7,353.5
				z"/>
			<path fill="#66A7D9" d="M615.7,351.9c-10.2-11-27.3-19.8-47.6-23.4c-8.9-1.6-17.6-2-25.7-1.4c-1.6-17.6-17.6-18.9-37.1-18.9
				c-19.5,0-35.5,1.2-37.1,18.9c-8.1-0.6-16.7-0.2-25.7,1.4c-20.4,3.6-37.7,12.6-47.9,23.7c-5.1,5.5-8.5,11.6-9.6,17.8
				c-0.5,3-0.6,5.9-0.1,8.9c0.6,3.4,1.9,6.5,3.7,9.3c8.9,13.7,31.2,21.6,56.9,19.6c11,15.1,41.4,26,59.7,26
				c18.9,0,48.9-10.9,59.8-26c25.5,1.9,47.7-5.8,56.6-19.4c2-2.9,3.3-6.1,3.9-9.6c0.5-3,0.5-6-0.1-8.9
				C624.4,363.6,621,357.5,615.7,351.9z M792.7,407.5l-0.1,74.8c-1.2,46.3-12.3,90.1-31.3,129c-36.7,12.9-60.8,34.5-60.8,59
				c0,6.9,1.9,13.5,5.4,19.8c-51.8,53-122.5,85.6-200.6,85.6S356.5,743,304.8,690c3.5-6.3,5.4-12.9,5.4-19.8
				c0-24.5-24.1-46.1-60.8-59c-16.8-34.5-27.5-72.8-30.5-113.4l0.1-90.3c0-117.6,90.9-213,202.9-213h167.8
				C701.8,194.6,792.7,289.9,792.7,407.5z M680.5,276c0-24.3-19.7-44-44-44c-24.3,0-44,19.7-44,44c0,24.3,19.7,44,44,44
				C660.8,320,680.5,300.3,680.5,276z M426.4,276c0-24.3-19.7-44-44-44c-24.3,0-44,19.7-44,44c0,24.3,19.7,44,44,44
				C406.7,320,426.4,300.3,426.4,276z M405.1,617.2c7.6-3.2,11.2-12,8-19.6c-3.2-7.6-12-11.2-19.6-8c-7.6,3.2-11.2,12-8,19.6
				C388.7,616.8,397.5,620.4,405.1,617.2z M340.5,636.9c20.1-8.5,29.6-31.7,21.1-51.9c-8.5-20.1-31.7-29.6-51.9-21.1
				c-20.1,8.5-29.6,31.7-21.1,51.9C297.2,636,320.4,645.4,340.5,636.9z M283.8,548.5c11-4.7,16.2-17.4,11.5-28.4
				c-4.7-11-17.4-16.2-28.4-11.5c-11,4.7-16.2,17.4-11.5,28.4C260,547.9,272.7,553.1,283.8,548.5z"/>
			<path fill="#66A7D9" d="M792.6,482.3l-0.2,120.8c-11.1,2.1-21.5,4.8-31.1,8.2C780.2,572.4,791.4,528.7,792.6,482.3z"/>
			<path fill="#66A7D9" d="M792.4,603.1l-0.2,134.3c-41.6-7.8-74-25.4-86.3-47.3c22.3-22.8,41.1-49.4,55.4-78.8
				C770.9,607.9,781.3,605.1,792.4,603.1z"/>
			<path fill="#66A7D9" d="M792.2,737.4l-0.5,404c0,97.5-62.5,179.7-147.7,205c0.1-5.3,0.2-10.5,0.2-15.7c0-18.4-2.2-34.5-6-48.4
				c3.1-5.6,4.8-12.1,4.8-19c0-21.9-17.7-39.6-39.6-39.6c-2.5,0-4.9,0.2-7.2,0.7c-28.6-14.3-63-2.4-82.1,35.5
				c-5.5,0.9-10.4,4-13.6,8.3c-33.6-82.8-133.9-62-133.9,62.5c0,5.3,0.1,10.7,0.2,16C281,1321.8,218,1239.3,218,1141.4l0.6-404
				c41.6-7.8,73.9-25.4,86.2-47.3c51.8,53,122.5,85.6,200.6,85.6S654.1,743,705.9,690C718.2,712,750.6,729.6,792.2,737.4z
				 M746.1,1157.7c0-6.6-5.4-12-12-12c-6.6,0-12,5.4-12,12s5.4,12,12,12C740.8,1169.7,746.1,1164.3,746.1,1157.7z M722.1,1217.1
				c0-15.8-12.8-28.6-28.6-28.6s-28.6,12.8-28.6,28.6s12.8,28.6,28.6,28.6S722.1,1232.9,722.1,1217.1z M650,1196.1
				c0-8.3-6.7-15-15-15c-8.3,0-15,6.7-15,15c0,8.3,6.7,15,15,15C643.2,1211.1,650,1204.4,650,1196.1z"/>
			<path fill="#66A7D9" d="M700.5,670.3c0-24.5,24.1-46.1,60.8-59c-14.3,29.4-33.1,56-55.4,78.8
				C702.4,683.8,700.5,677.1,700.5,670.3z"/>
			<path fill="#ACB0B5" d="M734.1,1145.8c6.6,0,12,5.4,12,12s-5.4,12-12,12c-6.6,0-12-5.4-12-12S727.5,1145.8,734.1,1145.8z"/>
			<ellipse fill="#ACB0B5" cx="693.6" cy="1217.1" rx="28.6" ry="28.6"/>
			<path fill="#231F20" d="M636.6,232c24.3,0,44,19.7,44,44c0,24.3-19.7,44-44,44c-24.3,0-44-19.7-44-44
				C592.6,251.7,612.3,232,636.6,232z M658,257c0-6.6-5.3-11.9-11.9-11.9c-6.6,0-11.9,5.3-11.9,11.9c0,6.6,5.3,11.9,11.9,11.9
				C652.6,268.9,658,263.6,658,257z"/>
			<path fill="#FFFFFF" d="M646,245.1c6.6,0,11.9,5.3,11.9,11.9c0,6.6-5.3,11.9-11.9,11.9c-6.6,0-11.9-5.4-11.9-11.9
				C634.1,250.4,639.5,245.1,646,245.1z"/>
			<path fill="#ACB0B5" d="M635,1181.1c8.3,0,15,6.7,15,15c0,8.3-6.7,15-15,15c-8.3,0-15-6.7-15-15
				C620,1187.9,626.7,1181.1,635,1181.1z"/>
			<path fill="#66A7D9" d="M644.2,1330.7c0,5.2-0.1,10.5-0.2,15.7c-17.6,5.2-36.1,8-55.2,8h-78c0.3-7.9,0.4-15.9,0.4-23.7
				c0-10.6-0.7-20.4-2.1-29.5c2.6,1.1,5.5,1.8,8.6,1.8c12,0,21.7-9.7,21.7-21.7c0-12-9.7-21.7-21.7-21.7c-1.2,0-2.5,0.1-3.7,0.3
				c19.1-37.9,53.5-49.7,82.1-35.5c-18.4,3.4-32.4,19.5-32.4,38.9c0,21.9,17.7,39.6,39.6,39.6c15,0,28-8.3,34.8-20.6
				C642,1296.1,644.2,1312.3,644.2,1330.7z"/>
			<path fill="#ACB0B5" d="M643,1263.3c0,6.9-1.8,13.3-4.8,19c-8.2-29.6-23.9-48.9-42-57.9c2.3-0.4,4.8-0.7,7.2-0.7
				C625.2,1223.7,643,1241.4,643,1263.3z"/>
			<path fill="#ACB0B5" d="M638.1,1282.3c-6.7,12.3-19.8,20.6-34.8,20.6c-21.9,0-39.6-17.7-39.6-39.6c0-19.4,14-35.5,32.4-38.9
				C614.2,1233.3,629.9,1252.6,638.1,1282.3z"/>
			<path fill="#ACB0B5" d="M625.6,369.9c0.5,3,0.6,5.9,0.1,8.9c-0.6,3.5-1.9,6.7-3.9,9.6c-9,13.5-31.1,21.3-56.6,19.4
				c2.6-3.6,4-7.4,4-11.3c0-19.6-26-21.8-58.9-22c1.6-2.8,2.7-5.7,3.4-8.7c13.2-4.6,29-18.8,29-35.7c0-1.1,0-2.1-0.1-3.1
				c8.1-0.6,16.8-0.2,25.7,1.4c20.3,3.6,37.4,12.5,47.6,23.4C621,357.5,624.4,363.6,625.6,369.9z"/>
			<path fill="#66A7D9" d="M644,1346.4c-3.5,145.6-53.7,305.6-72.2,305.6c-15.2,0-52.1-109.1-66.5-229.1c2.7-22.7,4.6-45.8,5.4-68.5
				h78C607.9,1354.4,626.4,1351.6,644,1346.4z"/>
			<path fill="#ACB0B5" d="M569.1,396.5c0,3.9-1.5,7.7-4,11.3c-3.5-0.3-7.1-0.7-10.7-1.3c-21.2-3.7-39-13.3-49-25
				c1.9-2.2,3.6-4.6,4.9-6.9C543.2,374.7,569.1,376.8,569.1,396.5z"/>
			<path fill="#231F20" d="M554.4,406.4c3.6,0.6,7.2,1.1,10.7,1.3c-10.8,15.1-40.9,26-59.8,26c-18.2,0-48.7-10.9-59.7-26
				c3.5-0.2,7.1-0.7,10.7-1.3c21.2-3.8,39-13.3,49-25C515.4,393.1,533.1,402.7,554.4,406.4z"/>
			<path fill="#231F20" d="M542.5,327.1c0.1,1,0.1,2,0.1,3.1c0,16.8-15.8,31-29,35.7c0.7-3.2,0.8-6.5,0.2-9.8c-1-5.7-4-10.8-8.5-15
				C513.6,333.3,526.9,328.3,542.5,327.1z"/>
			<path fill="#ACB0B5" d="M517.7,1259.5c12,0,21.7,9.7,21.7,21.7c0,12-9.7,21.7-21.7,21.7c-3,0-5.9-0.6-8.6-1.8
				c-0.9-6.5-2.2-12.5-3.8-18.2c2.3-8.5,5.3-16.2,8.7-23.1C515.2,1259.7,516.5,1259.5,517.7,1259.5z"/>
			<path fill="#231F20" d="M505.3,308.2c19.5,0,35.5,1.2,37.1,18.9c-15.6,1.2-28.9,6.2-37.1,14c-8.2-7.8-21.5-12.8-37.1-14
				C469.9,309.4,485.9,308.2,505.3,308.2z"/>
			<path fill="#231F20" d="M513.8,356.1c0.6,3.2,0.5,6.5-0.2,9.8c-2.9,1-5.8,1.6-8.3,1.6c-2.4,0-5.3-0.6-8.3-1.7
				c-0.7-3.2-0.8-6.5-0.2-9.7c1-5.7,4-10.8,8.5-15C509.9,345.3,512.8,350.4,513.8,356.1z"/>
			<path fill="#66A7D9" d="M511.2,1330.7c0,7.8-0.2,15.8-0.4,23.7h-10.9c-0.3-7.9-0.4-15.9-0.4-23.7c0-12.4,1-23.8,2.8-34.2
				c1.9,1.9,4.2,3.5,6.8,4.6C510.5,1310.2,511.2,1320.1,511.2,1330.7z"/>
			<path fill="#66A7D9" d="M499.9,1354.4h10.9c-0.8,22.8-2.7,45.9-5.4,68.5C502.6,1400.2,500.7,1377.2,499.9,1354.4z"/>
			<path fill="#ACB0B5" d="M513.6,365.8c-0.6,2.9-1.8,5.8-3.4,8.7c-1.6,0-3.2,0-4.9,0s-3.3,0-4.9,0c-1.6-2.9-2.7-5.8-3.4-8.7
				c3,1.1,5.8,1.7,8.3,1.7C507.8,367.4,510.6,366.9,513.6,365.8z"/>
			<path fill="#ACB0B5" d="M505.3,374.5c1.6,0,3.3,0,4.9,0c-1.3,2.4-3,4.7-4.9,6.9c-1.9-2.2-3.6-4.6-4.9-6.9
				C502,374.5,503.7,374.5,505.3,374.5z"/>
			<path fill="#ACB0B5" d="M514,1259.8c-3.4,6.8-6.4,14.5-8.7,23.1c-1.4-5.2-3.1-10.2-4.9-14.8
				C503.6,1263.8,508.5,1260.8,514,1259.8z"/>
			<path fill="#ACB0B5" d="M505.3,1282.9c1.6,5.7,2.8,11.8,3.8,18.2c-2.6-1.1-4.9-2.7-6.8-4.6
				C503.1,1291.8,504.2,1287.2,505.3,1282.9z"/>
			<path fill="#ACB0B5" d="M505.3,1282.9c-1.2,4.3-2.2,8.8-3,13.6c-3.9-3.9-6.3-9.3-6.3-15.3c0-4.9,1.6-9.4,4.4-13
				C502.3,1272.8,503.9,1277.7,505.3,1282.9z"/>
			<path fill="#ACB0B5" d="M500.4,374.5c1.3,2.4,3,4.7,4.9,6.9c-10,11.7-27.8,21.2-49,25c-3.6,0.6-7.2,1.1-10.7,1.3
				c-2.6-3.6-4.1-7.4-4.1-11.3C441.6,376.8,467.5,374.7,500.4,374.5z"/>
			<path fill="#66A7D9" d="M499.9,1354.4c0.8,22.8,2.7,45.9,5.4,68.5C491,1542.9,454,1652,438.8,1652c-18.4,0-68.6-159.9-72.1-305.3
				c17.3,5,35.5,7.7,54.3,7.7H499.9z"/>
			<path fill="#66A7D9" d="M499.9,1354.4H421c-18.8,0-37-2.7-54.3-7.7c-0.1-5.4-0.2-10.7-0.2-16c0-124.5,100.3-145.3,133.9-62.5
				c-2.8,3.6-4.4,8.1-4.4,13c0,6,2.4,11.3,6.3,15.3c-1.8,10.4-2.8,21.7-2.8,34.2C499.5,1338.5,499.6,1346.4,499.9,1354.4z"/>
			<path fill="#ACB0B5" d="M385.1,369.9c1.1-6.2,4.5-12.2,9.6-17.8c10.2-11.1,27.4-20.1,47.9-23.7c8.9-1.6,17.6-2,25.7-1.4
				c-0.1,1-0.1,2-0.1,3.1c0,16.8,15.9,30.9,29,35.6c0.6,3,1.8,5.9,3.4,8.7c-32.9,0.2-58.9,2.3-58.9,22c0,3.9,1.5,7.7,4.1,11.3
				c-25.7,1.9-48-5.9-56.9-19.6c-1.8-2.9-3.1-6-3.7-9.3C384.5,375.8,384.6,372.8,385.1,369.9z"/>
			<path fill="#231F20" d="M505.4,341c-4.5,4.2-7.5,9.3-8.5,15c-0.6,3.2-0.5,6.5,0.2,9.7c-13-4.7-29-18.8-29-35.6
				c0-1.1,0.1-2.1,0.1-3.1C483.8,328.3,497.1,333.3,505.4,341z"/>
			<path fill="#231F20" d="M382.4,232c24.3,0,44,19.7,44,44c0,24.3-19.7,44-44,44c-24.3,0-44-19.7-44-44
				C338.4,251.7,358.1,232,382.4,232z M403.8,257c0-6.6-5.3-11.9-11.9-11.9c-6.6,0-11.9,5.3-11.9,11.9c0,6.6,5.3,11.9,11.9,11.9
				C398.5,268.9,403.8,263.6,403.8,257z"/>
			<path fill="#ACB0B5" d="M413.1,597.6c3.2,7.6-0.4,16.4-8,19.6c-7.6,3.2-16.4-0.4-19.6-8c-3.2-7.6,0.4-16.4,8-19.6
				C401.1,586.4,409.9,589.9,413.1,597.6z"/>
			<path fill="#FFFFFF" d="M391.9,245.1c6.6,0,11.9,5.3,11.9,11.9c0,6.6-5.3,11.9-11.9,11.9c-6.6,0-11.9-5.4-11.9-11.9
				C380,250.4,385.3,245.1,391.9,245.1z"/>
			<path fill="#ACB0B5" d="M361.6,585c8.5,20.1-0.9,43.4-21.1,51.9c-20.1,8.5-43.4-0.9-51.9-21.1c-8.5-20.2,0.9-43.4,21.1-51.9
				C329.9,555.5,353.1,564.9,361.6,585z"/>
			<path fill="#66A7D9" d="M310.2,670.3c0,6.9-1.9,13.5-5.4,19.8c-0.9-0.9-1.7-1.8-2.6-2.7c-21.2-22.2-39-47.9-52.8-76.1
				C286.1,624.1,310.2,645.8,310.2,670.3z"/>
			<path fill="#66A7D9" d="M302.2,687.3c0.9,0.9,1.7,1.8,2.6,2.7c-12.3,21.9-44.6,39.5-86.2,47.3l0.2-134.2
				c10.9,2,21.2,4.8,30.6,8.1C263.1,639.5,281,665.2,302.2,687.3z"/>
			<path fill="#ACB0B5" d="M295.3,520c4.6,11-0.5,23.8-11.5,28.4c-11,4.6-23.8-0.5-28.4-11.5c-4.7-11,0.5-23.7,11.5-28.4
				C277.9,503.8,290.6,509,295.3,520z"/>
			<path fill="#66A7D9" d="M249.4,611.3c-9.4-3.3-19.7-6-30.6-8.1l0.1-105.3C221.9,538.4,232.6,576.8,249.4,611.3z"/>
			<path fill="#66A7D9" d="M218.8,603.2l-0.2,134.2c-15,2.8-31.2,4.3-48,4.3c-77.1,0-139.7-32-139.7-71.5
				c0-39.5,62.5-71.5,139.7-71.5C187.5,598.8,203.7,600.3,218.8,603.2z"/>
		</g>
		<g>
			<path fill="none" stroke="#66A7D9" stroke-miterlimit="10" d="M366.7,1346.7c3.5,145.5,53.7,305.3,72.1,305.3
				c15.2,0,52.1-109.1,66.5-229.1c2.7-22.7,4.6-45.8,5.4-68.5c0.3-7.9,0.4-15.9,0.4-23.7c0-10.6-0.7-20.4-2.1-29.5
				c-0.9-6.5-2.2-12.5-3.8-18.2c-1.4-5.2-3.1-10.2-4.9-14.8c-33.6-82.8-133.9-62-133.9,62.5C366.5,1336,366.6,1341.3,366.7,1346.7z"
				/>
			<path fill="none" stroke="#66A7D9" stroke-miterlimit="10" d="M505.3,1422.9c14.4,120,51.3,229.1,66.5,229.1
				c18.4,0,68.7-160.1,72.2-305.6c0.1-5.3,0.2-10.5,0.2-15.7c0-18.4-2.2-34.5-6-48.4c-8.2-29.6-23.9-48.9-42-57.9
				c-28.6-14.3-63-2.4-82.1,35.5c-3.4,6.8-6.4,14.5-8.7,23.1c-1.2,4.3-2.2,8.8-3,13.6c-1.8,10.4-2.8,21.7-2.8,34.2
				c0,7.8,0.1,15.8,0.4,23.7C500.7,1377.2,502.6,1400.2,505.3,1422.9z"/>
			<path fill="none" stroke="#66A7D9" stroke-miterlimit="10" d="M792.4,603.1c14.9-2.8,31-4.3,47.8-4.3c77.1,0,139.7,32,139.7,71.5
				c0,39.5-62.5,71.5-139.7,71.5c-16.8,0-33-1.5-48-4.3c-41.6-7.8-74-25.4-86.3-47.3c-3.5-6.3-5.4-12.9-5.4-19.8
				c0-24.5,24.1-46.1,60.8-59C770.9,607.9,781.3,605.1,792.4,603.1z"/>
			<path fill="none" stroke="#66A7D9" stroke-miterlimit="10" d="M249.4,611.3c36.7,12.9,60.8,34.5,60.8,59c0,6.9-1.9,13.5-5.4,19.8
				c-12.3,21.9-44.6,39.5-86.2,47.3c-15,2.8-31.2,4.3-48,4.3c-77.1,0-139.7-32-139.7-71.5c0-39.5,62.5-71.5,139.7-71.5
				c16.9,0,33.2,1.5,48.2,4.4C229.7,605.2,239.9,608,249.4,611.3z"/>
			<path fill="none" stroke="#66A7D9" stroke-miterlimit="10" d="M792.7,407.5c0-117.6-90.9-213-203-213H422
				c-112.1,0-202.9,95.4-202.9,213l-0.1,90.3l-0.1,105.3l-0.2,134.2l-0.6,404c0,97.9,62.9,180.4,148.7,205.3
				c17.3,5,35.5,7.7,54.3,7.7h78.9h10.9h78c19.2,0,37.7-2.8,55.2-8c85.2-25.2,147.7-107.4,147.7-205l0.5-404l0.2-134.3l0.2-120.8
				L792.7,407.5z"/>
			<path fill="none" stroke="#66A7D9" stroke-miterlimit="10" d="M792.7,407.5v66.6c0,2.7,0,5.5-0.1,8.2
				c-1.2,46.3-12.3,90.1-31.3,129c-14.3,29.4-33.1,56-55.4,78.8c-51.8,53-122.5,85.6-200.6,85.6S356.5,743,304.8,690
				c-0.9-0.9-1.7-1.8-2.6-2.7c-21.2-22.2-39-47.9-52.8-76.1c-16.8-34.5-27.5-72.8-30.5-113.4c-0.6-7.8-0.9-15.7-0.9-23.7V353.5
				C218,187,346.7,52,505.3,52c79.3,0,151.2,33.7,203.2,88.3c52,54.6,84.2,129.9,84.2,213.2V407.5z"/>
			<polyline fill="none" stroke="#010507" stroke-width="6.5986" stroke-miterlimit="10" points="571.4,384 621.7,388.4 
				683.2,393.8 			"/>
			<polyline fill="none" stroke="#010507" stroke-width="6.5986" stroke-miterlimit="10" points="571.4,355.7 615.7,351.9 
				683.2,346 			"/>
			<polyline fill="none" stroke="#010507" stroke-width="6.5986" stroke-miterlimit="10" points="436.1,384 388.8,388.1 
				324.4,393.8 			"/>
			<polyline fill="none" stroke="#010507" stroke-width="6.5986" stroke-miterlimit="10" points="436.1,355.7 394.7,352.1 
				324.4,346 			"/>
			<polyline fill="none" stroke="#010507" stroke-width="6.5986" stroke-miterlimit="10" points="580.7,369.9 625.6,369.9 
				692.9,369.9 			"/>
			<polyline fill="none" stroke="#010507" stroke-width="6.5986" stroke-miterlimit="10" points="426.8,369.9 385.1,369.9 
				314.7,369.9 			"/>
		</g>
	</g>
</g>
</svg>
